<mxfile host="app.diagrams.net" modified="2024-01-24T12:16:29.030Z" agent="Mozilla/5.0 (Windows NT 10.0; Win64; x64) AppleWebKit/537.36 (KHTML, like Gecko) Chrome/120.0.0.0 Safari/537.36" etag="cxqb0C2un8cWG7D48DBZ" version="23.0.1" type="google">
  <diagram id="R2lEEEUBdFMjLlhIrx00" name="Page-1">
    <mxGraphModel grid="1" page="1" gridSize="10" guides="1" tooltips="1" connect="1" arrows="1" fold="1" pageScale="1" pageWidth="850" pageHeight="1100" math="0" shadow="0" extFonts="Permanent Marker^https://fonts.googleapis.com/css?family=Permanent+Marker">
      <root>
        <mxCell id="0" />
        <mxCell id="1" parent="0" />
        <mxCell id="OKaZB6Riipc2AciTPFcM-1" value="Clientes" style="rounded=0;whiteSpace=wrap;html=1;fillColor=#fff2cc;strokeColor=#d6b656;" vertex="1" parent="1">
          <mxGeometry x="140" y="240" width="100" height="40" as="geometry" />
        </mxCell>
        <mxCell id="OKaZB6Riipc2AciTPFcM-2" value="Mesas" style="rounded=0;whiteSpace=wrap;html=1;fillColor=#fff2cc;strokeColor=#d6b656;" vertex="1" parent="1">
          <mxGeometry x="640" y="240" width="100" height="40" as="geometry" />
        </mxCell>
        <mxCell id="OKaZB6Riipc2AciTPFcM-3" value="Reservas" style="rounded=0;whiteSpace=wrap;html=1;fillColor=#fff2cc;strokeColor=#d6b656;" vertex="1" parent="1">
          <mxGeometry x="375" y="390" width="100" height="40" as="geometry" />
        </mxCell>
        <mxCell id="OKaZB6Riipc2AciTPFcM-5" value="cliente_id" style="ellipse;whiteSpace=wrap;html=1;fontStyle=4;fillColor=#f8cecc;strokeColor=#b85450;" vertex="1" parent="1">
          <mxGeometry x="60" y="315" width="70" height="30" as="geometry" />
        </mxCell>
        <mxCell id="OKaZB6Riipc2AciTPFcM-6" value="nombre" style="ellipse;whiteSpace=wrap;html=1;fillColor=#dae8fc;strokeColor=#6c8ebf;" vertex="1" parent="1">
          <mxGeometry y="280" width="70" height="30" as="geometry" />
        </mxCell>
        <mxCell id="OKaZB6Riipc2AciTPFcM-7" value="correo_electronico" style="ellipse;whiteSpace=wrap;html=1;fillColor=#dae8fc;strokeColor=#6c8ebf;" vertex="1" parent="1">
          <mxGeometry x="30" y="175" width="110" height="40" as="geometry" />
        </mxCell>
        <mxCell id="OKaZB6Riipc2AciTPFcM-8" value="telefono" style="ellipse;whiteSpace=wrap;html=1;fillColor=#dae8fc;strokeColor=#6c8ebf;" vertex="1" parent="1">
          <mxGeometry x="270" y="215" width="80" height="30" as="geometry" />
        </mxCell>
        <mxCell id="OKaZB6Riipc2AciTPFcM-9" value="mesa_id" style="ellipse;whiteSpace=wrap;html=1;fontStyle=4;fillColor=#f8cecc;strokeColor=#b85450;" vertex="1" parent="1">
          <mxGeometry x="630" y="160" width="90" height="40" as="geometry" />
        </mxCell>
        <mxCell id="OKaZB6Riipc2AciTPFcM-10" value="capacidad" style="ellipse;whiteSpace=wrap;html=1;fillColor=#dae8fc;strokeColor=#6c8ebf;" vertex="1" parent="1">
          <mxGeometry x="725" y="190" width="90" height="40" as="geometry" />
        </mxCell>
        <mxCell id="OKaZB6Riipc2AciTPFcM-11" value="numero_mesa" style="ellipse;whiteSpace=wrap;html=1;fillColor=#dae8fc;strokeColor=#6c8ebf;" vertex="1" parent="1">
          <mxGeometry x="750" y="260" width="90" height="40" as="geometry" />
        </mxCell>
        <mxCell id="OKaZB6Riipc2AciTPFcM-12" value="reserva_id" style="ellipse;whiteSpace=wrap;html=1;fontStyle=4;fillColor=#f8cecc;strokeColor=#b85450;" vertex="1" parent="1">
          <mxGeometry x="375" y="480" width="80" height="60" as="geometry" />
        </mxCell>
        <mxCell id="OKaZB6Riipc2AciTPFcM-15" value="fecha" style="ellipse;whiteSpace=wrap;html=1;fillColor=#dae8fc;strokeColor=#6c8ebf;" vertex="1" parent="1">
          <mxGeometry x="470" y="473.13" width="80" height="57.5" as="geometry" />
        </mxCell>
        <mxCell id="OKaZB6Riipc2AciTPFcM-17" value="hora" style="ellipse;whiteSpace=wrap;html=1;fillColor=#dae8fc;strokeColor=#6c8ebf;" vertex="1" parent="1">
          <mxGeometry x="500" y="400" width="80" height="60.63" as="geometry" />
        </mxCell>
        <mxCell id="OKaZB6Riipc2AciTPFcM-19" value="" style="endArrow=none;html=1;rounded=0;" edge="1" parent="1" source="OKaZB6Riipc2AciTPFcM-1" target="OKaZB6Riipc2AciTPFcM-5">
          <mxGeometry width="50" height="50" relative="1" as="geometry">
            <mxPoint x="180" y="230" as="sourcePoint" />
            <mxPoint x="410" y="220" as="targetPoint" />
          </mxGeometry>
        </mxCell>
        <mxCell id="OKaZB6Riipc2AciTPFcM-20" value="" style="endArrow=none;html=1;rounded=0;" edge="1" parent="1" source="OKaZB6Riipc2AciTPFcM-1" target="OKaZB6Riipc2AciTPFcM-6">
          <mxGeometry width="50" height="50" relative="1" as="geometry">
            <mxPoint x="360" y="270" as="sourcePoint" />
            <mxPoint x="410" y="220" as="targetPoint" />
          </mxGeometry>
        </mxCell>
        <mxCell id="OKaZB6Riipc2AciTPFcM-21" value="" style="endArrow=none;html=1;rounded=0;entryX=0.5;entryY=1;entryDx=0;entryDy=0;" edge="1" parent="1" source="OKaZB6Riipc2AciTPFcM-1" target="OKaZB6Riipc2AciTPFcM-7">
          <mxGeometry width="50" height="50" relative="1" as="geometry">
            <mxPoint x="360" y="270" as="sourcePoint" />
            <mxPoint x="410" y="220" as="targetPoint" />
          </mxGeometry>
        </mxCell>
        <mxCell id="OKaZB6Riipc2AciTPFcM-22" value="" style="endArrow=none;html=1;rounded=0;entryX=0.5;entryY=1;entryDx=0;entryDy=0;exitX=1;exitY=0.25;exitDx=0;exitDy=0;" edge="1" parent="1" source="OKaZB6Riipc2AciTPFcM-1" target="OKaZB6Riipc2AciTPFcM-8">
          <mxGeometry width="50" height="50" relative="1" as="geometry">
            <mxPoint x="360" y="270" as="sourcePoint" />
            <mxPoint x="410" y="220" as="targetPoint" />
          </mxGeometry>
        </mxCell>
        <mxCell id="OKaZB6Riipc2AciTPFcM-23" value="" style="endArrow=none;html=1;rounded=0;" edge="1" parent="1" source="OKaZB6Riipc2AciTPFcM-2" target="OKaZB6Riipc2AciTPFcM-9">
          <mxGeometry width="50" height="50" relative="1" as="geometry">
            <mxPoint x="360" y="370" as="sourcePoint" />
            <mxPoint x="410" y="320" as="targetPoint" />
          </mxGeometry>
        </mxCell>
        <mxCell id="OKaZB6Riipc2AciTPFcM-24" value="" style="endArrow=none;html=1;rounded=0;entryX=0.5;entryY=1;entryDx=0;entryDy=0;exitX=1;exitY=0;exitDx=0;exitDy=0;" edge="1" parent="1" source="OKaZB6Riipc2AciTPFcM-2" target="OKaZB6Riipc2AciTPFcM-10">
          <mxGeometry width="50" height="50" relative="1" as="geometry">
            <mxPoint x="360" y="370" as="sourcePoint" />
            <mxPoint x="410" y="320" as="targetPoint" />
          </mxGeometry>
        </mxCell>
        <mxCell id="OKaZB6Riipc2AciTPFcM-25" value="" style="endArrow=none;html=1;rounded=0;entryX=0;entryY=0.5;entryDx=0;entryDy=0;" edge="1" parent="1" source="OKaZB6Riipc2AciTPFcM-2" target="OKaZB6Riipc2AciTPFcM-11">
          <mxGeometry width="50" height="50" relative="1" as="geometry">
            <mxPoint x="360" y="370" as="sourcePoint" />
            <mxPoint x="410" y="320" as="targetPoint" />
          </mxGeometry>
        </mxCell>
        <mxCell id="OKaZB6Riipc2AciTPFcM-29" value="" style="endArrow=none;html=1;rounded=0;entryX=0.5;entryY=1;entryDx=0;entryDy=0;exitX=0.5;exitY=0;exitDx=0;exitDy=0;" edge="1" parent="1" source="OKaZB6Riipc2AciTPFcM-15" target="OKaZB6Riipc2AciTPFcM-3">
          <mxGeometry width="50" height="50" relative="1" as="geometry">
            <mxPoint x="360" y="570" as="sourcePoint" />
            <mxPoint x="410" y="520" as="targetPoint" />
          </mxGeometry>
        </mxCell>
        <mxCell id="OKaZB6Riipc2AciTPFcM-30" value="" style="endArrow=none;html=1;rounded=0;exitX=0.5;exitY=0;exitDx=0;exitDy=0;" edge="1" parent="1" source="OKaZB6Riipc2AciTPFcM-17" target="OKaZB6Riipc2AciTPFcM-3">
          <mxGeometry width="50" height="50" relative="1" as="geometry">
            <mxPoint x="360" y="570" as="sourcePoint" />
            <mxPoint x="410" y="520" as="targetPoint" />
          </mxGeometry>
        </mxCell>
        <mxCell id="OKaZB6Riipc2AciTPFcM-31" value="empleado_id" style="ellipse;whiteSpace=wrap;html=1;fontStyle=4;fillColor=#f8cecc;strokeColor=#b85450;" vertex="1" parent="1">
          <mxGeometry x="20" y="650" width="90" height="50" as="geometry" />
        </mxCell>
        <mxCell id="OKaZB6Riipc2AciTPFcM-32" value="nombre" style="ellipse;whiteSpace=wrap;html=1;fillColor=#dae8fc;strokeColor=#6c8ebf;" vertex="1" parent="1">
          <mxGeometry x="210" y="660" width="80" height="40" as="geometry" />
        </mxCell>
        <mxCell id="OKaZB6Riipc2AciTPFcM-33" value="puesto" style="ellipse;whiteSpace=wrap;html=1;fillColor=#dae8fc;strokeColor=#6c8ebf;" vertex="1" parent="1">
          <mxGeometry x="120" y="670" width="80" height="50" as="geometry" />
        </mxCell>
        <mxCell id="OKaZB6Riipc2AciTPFcM-35" value="realiza" style="rhombus;whiteSpace=wrap;html=1;fillColor=#f5f5f5;fontColor=#333333;strokeColor=#666666;" vertex="1" parent="1">
          <mxGeometry x="240" y="315" width="70" height="50" as="geometry" />
        </mxCell>
        <mxCell id="OKaZB6Riipc2AciTPFcM-38" value="" style="endArrow=none;html=1;rounded=0;entryX=0.5;entryY=1;entryDx=0;entryDy=0;exitX=0;exitY=0;exitDx=0;exitDy=0;" edge="1" parent="1" source="OKaZB6Riipc2AciTPFcM-35" target="OKaZB6Riipc2AciTPFcM-1">
          <mxGeometry width="50" height="50" relative="1" as="geometry">
            <mxPoint x="360" y="400" as="sourcePoint" />
            <mxPoint x="410" y="350" as="targetPoint" />
          </mxGeometry>
        </mxCell>
        <mxCell id="OKaZB6Riipc2AciTPFcM-41" value="distribuye" style="rhombus;whiteSpace=wrap;html=1;fillColor=#f5f5f5;fontColor=#333333;strokeColor=#666666;" vertex="1" parent="1">
          <mxGeometry x="655" y="540" width="70" height="50" as="geometry" />
        </mxCell>
        <mxCell id="OKaZB6Riipc2AciTPFcM-4" value="Empleados" style="rounded=0;whiteSpace=wrap;html=1;fillColor=#fff2cc;strokeColor=#d6b656;" vertex="1" parent="1">
          <mxGeometry x="100" y="570" width="100" height="40" as="geometry" />
        </mxCell>
        <mxCell id="OKaZB6Riipc2AciTPFcM-45" value="" style="endArrow=none;html=1;rounded=0;entryX=0.5;entryY=1;entryDx=0;entryDy=0;" edge="1" parent="1" source="OKaZB6Riipc2AciTPFcM-41" target="OKaZB6Riipc2AciTPFcM-2">
          <mxGeometry width="50" height="50" relative="1" as="geometry">
            <mxPoint x="360" y="400" as="sourcePoint" />
            <mxPoint x="410" y="350" as="targetPoint" />
          </mxGeometry>
        </mxCell>
        <mxCell id="OKaZB6Riipc2AciTPFcM-49" value="" style="endArrow=none;html=1;rounded=0;entryX=0.25;entryY=1;entryDx=0;entryDy=0;exitX=0.5;exitY=0;exitDx=0;exitDy=0;" edge="1" parent="1" source="OKaZB6Riipc2AciTPFcM-31" target="OKaZB6Riipc2AciTPFcM-4">
          <mxGeometry width="50" height="50" relative="1" as="geometry">
            <mxPoint x="360" y="500" as="sourcePoint" />
            <mxPoint x="410" y="450" as="targetPoint" />
          </mxGeometry>
        </mxCell>
        <mxCell id="OKaZB6Riipc2AciTPFcM-50" value="" style="endArrow=none;html=1;rounded=0;entryX=0.61;entryY=1.025;entryDx=0;entryDy=0;entryPerimeter=0;exitX=0.5;exitY=0;exitDx=0;exitDy=0;" edge="1" parent="1" source="OKaZB6Riipc2AciTPFcM-33" target="OKaZB6Riipc2AciTPFcM-4">
          <mxGeometry width="50" height="50" relative="1" as="geometry">
            <mxPoint x="360" y="500" as="sourcePoint" />
            <mxPoint x="410" y="450" as="targetPoint" />
          </mxGeometry>
        </mxCell>
        <mxCell id="OKaZB6Riipc2AciTPFcM-51" value="" style="endArrow=none;html=1;rounded=0;entryX=1;entryY=1;entryDx=0;entryDy=0;" edge="1" parent="1" source="OKaZB6Riipc2AciTPFcM-32" target="OKaZB6Riipc2AciTPFcM-4">
          <mxGeometry width="50" height="50" relative="1" as="geometry">
            <mxPoint x="360" y="500" as="sourcePoint" />
            <mxPoint x="410" y="450" as="targetPoint" />
          </mxGeometry>
        </mxCell>
        <mxCell id="OKaZB6Riipc2AciTPFcM-52" value="" style="endArrow=none;html=1;rounded=0;entryX=0;entryY=1;entryDx=0;entryDy=0;" edge="1" parent="1" source="OKaZB6Riipc2AciTPFcM-12" target="OKaZB6Riipc2AciTPFcM-3">
          <mxGeometry width="50" height="50" relative="1" as="geometry">
            <mxPoint x="360" y="500" as="sourcePoint" />
            <mxPoint x="410" y="450" as="targetPoint" />
          </mxGeometry>
        </mxCell>
        <mxCell id="OKaZB6Riipc2AciTPFcM-53" value="" style="endArrow=none;html=1;rounded=0;entryX=1;entryY=1;entryDx=0;entryDy=0;exitX=0;exitY=0;exitDx=0;exitDy=0;" edge="1" parent="1" source="OKaZB6Riipc2AciTPFcM-3" target="OKaZB6Riipc2AciTPFcM-35">
          <mxGeometry width="50" height="50" relative="1" as="geometry">
            <mxPoint x="360" y="400" as="sourcePoint" />
            <mxPoint x="410" y="350" as="targetPoint" />
          </mxGeometry>
        </mxCell>
        <mxCell id="LRaXzDF50RcbncLnrxgL-1" value="" style="endArrow=none;html=1;rounded=0;exitX=1;exitY=0.5;exitDx=0;exitDy=0;entryX=0.5;entryY=1;entryDx=0;entryDy=0;" edge="1" parent="1" source="OKaZB6Riipc2AciTPFcM-4" target="OKaZB6Riipc2AciTPFcM-41">
          <mxGeometry width="50" height="50" relative="1" as="geometry">
            <mxPoint x="400" y="570" as="sourcePoint" />
            <mxPoint x="450" y="520" as="targetPoint" />
          </mxGeometry>
        </mxCell>
        <mxCell id="LRaXzDF50RcbncLnrxgL-2" value="(1,n)" style="text;html=1;strokeColor=none;fillColor=none;align=center;verticalAlign=middle;whiteSpace=wrap;rounded=0;" vertex="1" parent="1">
          <mxGeometry x="645" y="520" width="60" height="30" as="geometry" />
        </mxCell>
        <mxCell id="LRaXzDF50RcbncLnrxgL-3" value="(n,1)" style="text;html=1;strokeColor=none;fillColor=none;align=center;verticalAlign=middle;whiteSpace=wrap;rounded=0;" vertex="1" parent="1">
          <mxGeometry x="660" y="590" width="60" height="30" as="geometry" />
        </mxCell>
        <mxCell id="LRaXzDF50RcbncLnrxgL-4" value="1:N" style="text;html=1;strokeColor=none;fillColor=none;align=center;verticalAlign=middle;whiteSpace=wrap;rounded=0;fontStyle=1" vertex="1" parent="1">
          <mxGeometry x="280" y="470.63" width="60" height="30" as="geometry" />
        </mxCell>
        <mxCell id="LRaXzDF50RcbncLnrxgL-5" value="recibe" style="rhombus;whiteSpace=wrap;html=1;fillColor=#f5f5f5;fontColor=#333333;strokeColor=#666666;" vertex="1" parent="1">
          <mxGeometry x="230" y="460" width="70" height="50" as="geometry" />
        </mxCell>
        <mxCell id="LRaXzDF50RcbncLnrxgL-6" value="" style="endArrow=none;html=1;rounded=0;entryX=0;entryY=0.5;entryDx=0;entryDy=0;exitX=1;exitY=0;exitDx=0;exitDy=0;" edge="1" parent="1" source="LRaXzDF50RcbncLnrxgL-5" target="OKaZB6Riipc2AciTPFcM-3">
          <mxGeometry width="50" height="50" relative="1" as="geometry">
            <mxPoint x="400" y="470" as="sourcePoint" />
            <mxPoint x="450" y="420" as="targetPoint" />
          </mxGeometry>
        </mxCell>
        <mxCell id="LRaXzDF50RcbncLnrxgL-7" value="" style="endArrow=none;html=1;rounded=0;entryX=0;entryY=1;entryDx=0;entryDy=0;exitX=0.57;exitY=-0.025;exitDx=0;exitDy=0;exitPerimeter=0;" edge="1" parent="1" source="OKaZB6Riipc2AciTPFcM-4" target="LRaXzDF50RcbncLnrxgL-5">
          <mxGeometry width="50" height="50" relative="1" as="geometry">
            <mxPoint x="400" y="470" as="sourcePoint" />
            <mxPoint x="450" y="420" as="targetPoint" />
          </mxGeometry>
        </mxCell>
        <mxCell id="LRaXzDF50RcbncLnrxgL-8" value="(1,n)" style="text;html=1;strokeColor=none;fillColor=none;align=center;verticalAlign=middle;whiteSpace=wrap;rounded=0;" vertex="1" parent="1">
          <mxGeometry x="250" y="443.13" width="60" height="30" as="geometry" />
        </mxCell>
        <mxCell id="LRaXzDF50RcbncLnrxgL-9" value="(1,n)" style="text;html=1;strokeColor=none;fillColor=none;align=center;verticalAlign=middle;whiteSpace=wrap;rounded=0;" vertex="1" parent="1">
          <mxGeometry x="190" y="480" width="60" height="30" as="geometry" />
        </mxCell>
        <mxCell id="LRaXzDF50RcbncLnrxgL-10" value="(1,1)" style="text;html=1;strokeColor=none;fillColor=none;align=center;verticalAlign=middle;whiteSpace=wrap;rounded=0;" vertex="1" parent="1">
          <mxGeometry x="290" y="335" width="60" height="30" as="geometry" />
        </mxCell>
        <mxCell id="LRaXzDF50RcbncLnrxgL-11" value="(1,n)" style="text;html=1;strokeColor=none;fillColor=none;align=center;verticalAlign=middle;whiteSpace=wrap;rounded=0;" vertex="1" parent="1">
          <mxGeometry x="230" y="300" width="60" height="30" as="geometry" />
        </mxCell>
        <mxCell id="LRaXzDF50RcbncLnrxgL-12" value="1:N" style="text;html=1;align=center;verticalAlign=middle;whiteSpace=wrap;rounded=0;fontStyle=1" vertex="1" parent="1">
          <mxGeometry x="220" y="350" width="60" height="30" as="geometry" />
        </mxCell>
        <mxCell id="LRaXzDF50RcbncLnrxgL-14" value="reservar" style="rhombus;whiteSpace=wrap;html=1;fillColor=#f5f5f5;fontColor=#333333;strokeColor=#666666;" vertex="1" parent="1">
          <mxGeometry x="500" y="300" width="80" height="60" as="geometry" />
        </mxCell>
        <mxCell id="LRaXzDF50RcbncLnrxgL-16" value="" style="endArrow=none;html=1;rounded=0;entryX=0;entryY=1;entryDx=0;entryDy=0;exitX=1;exitY=0;exitDx=0;exitDy=0;" edge="1" parent="1" source="LRaXzDF50RcbncLnrxgL-14" target="OKaZB6Riipc2AciTPFcM-2">
          <mxGeometry width="50" height="50" relative="1" as="geometry">
            <mxPoint x="400" y="390" as="sourcePoint" />
            <mxPoint x="450" y="340" as="targetPoint" />
          </mxGeometry>
        </mxCell>
        <mxCell id="LRaXzDF50RcbncLnrxgL-18" value="" style="endArrow=none;html=1;rounded=0;entryX=0;entryY=1;entryDx=0;entryDy=0;exitX=0.75;exitY=0;exitDx=0;exitDy=0;" edge="1" parent="1" source="OKaZB6Riipc2AciTPFcM-3" target="LRaXzDF50RcbncLnrxgL-14">
          <mxGeometry width="50" height="50" relative="1" as="geometry">
            <mxPoint x="450" y="390" as="sourcePoint" />
            <mxPoint x="530" y="345" as="targetPoint" />
          </mxGeometry>
        </mxCell>
        <mxCell id="LRaXzDF50RcbncLnrxgL-17" value="(1,1)" style="text;html=1;strokeColor=none;fillColor=none;align=center;verticalAlign=middle;whiteSpace=wrap;rounded=0;" vertex="1" parent="1">
          <mxGeometry x="470" y="330" width="60" height="30" as="geometry" />
        </mxCell>
        <mxCell id="LRaXzDF50RcbncLnrxgL-20" value="(1,1)" style="text;html=1;strokeColor=none;fillColor=none;align=center;verticalAlign=middle;whiteSpace=wrap;rounded=0;" vertex="1" parent="1">
          <mxGeometry x="530" y="285" width="60" height="30" as="geometry" />
        </mxCell>
        <mxCell id="LRaXzDF50RcbncLnrxgL-23" value="1:1" style="text;html=1;strokeColor=none;fillColor=none;align=center;verticalAlign=middle;whiteSpace=wrap;rounded=0;fontStyle=1" vertex="1" parent="1">
          <mxGeometry x="560" y="315" width="60" height="30" as="geometry" />
        </mxCell>
        <mxCell id="LRaXzDF50RcbncLnrxgL-25" value="N:M" style="text;html=1;strokeColor=none;fillColor=none;align=center;verticalAlign=middle;whiteSpace=wrap;rounded=0;fontStyle=1" vertex="1" parent="1">
          <mxGeometry x="705" y="550" width="60" height="30" as="geometry" />
        </mxCell>
        <mxCell id="GIs4Rrukfspg3L0rdsEF-1" value="&lt;font style=&quot;font-size: 12px;&quot;&gt;DNI&lt;/font&gt;" style="ellipse;whiteSpace=wrap;html=1;fontSize=16;fillColor=#dae8fc;strokeColor=#6c8ebf;" vertex="1" parent="1">
          <mxGeometry x="-20" y="570" width="90" height="55" as="geometry" />
        </mxCell>
        <mxCell id="GIs4Rrukfspg3L0rdsEF-2" value="" style="endArrow=none;html=1;rounded=0;fontSize=12;startSize=8;endSize=8;curved=1;entryX=0;entryY=0.5;entryDx=0;entryDy=0;exitX=1;exitY=0.5;exitDx=0;exitDy=0;" edge="1" parent="1" source="GIs4Rrukfspg3L0rdsEF-1" target="OKaZB6Riipc2AciTPFcM-4">
          <mxGeometry width="50" height="50" relative="1" as="geometry">
            <mxPoint x="400" y="600" as="sourcePoint" />
            <mxPoint x="450" y="550" as="targetPoint" />
          </mxGeometry>
        </mxCell>
        <mxCell id="S6327EMnDC8RldJqwDfJ-1" value="apellidos" style="ellipse;whiteSpace=wrap;html=1;fillColor=#dae8fc;strokeColor=#6c8ebf;" vertex="1" parent="1">
          <mxGeometry x="230" y="160" width="110" height="40" as="geometry" />
        </mxCell>
        <mxCell id="S6327EMnDC8RldJqwDfJ-2" value="fecha_nacimiento" style="ellipse;whiteSpace=wrap;html=1;fillColor=#dae8fc;strokeColor=#6c8ebf;" vertex="1" parent="1">
          <mxGeometry x="110" y="130" width="110" height="40" as="geometry" />
        </mxCell>
        <mxCell id="S6327EMnDC8RldJqwDfJ-3" value="domicilio" style="ellipse;whiteSpace=wrap;html=1;fillColor=#dae8fc;strokeColor=#6c8ebf;" vertex="1" parent="1">
          <mxGeometry x="-10" y="230" width="110" height="40" as="geometry" />
        </mxCell>
        <mxCell id="S6327EMnDC8RldJqwDfJ-5" value="" style="endArrow=none;html=1;rounded=0;fontSize=12;startSize=8;endSize=8;curved=1;entryX=0.5;entryY=1;entryDx=0;entryDy=0;exitX=0.5;exitY=0;exitDx=0;exitDy=0;" edge="1" parent="1" source="OKaZB6Riipc2AciTPFcM-1" target="S6327EMnDC8RldJqwDfJ-2">
          <mxGeometry width="50" height="50" relative="1" as="geometry">
            <mxPoint x="360" y="300" as="sourcePoint" />
            <mxPoint x="410" y="250" as="targetPoint" />
          </mxGeometry>
        </mxCell>
        <mxCell id="S6327EMnDC8RldJqwDfJ-6" value="" style="endArrow=none;html=1;rounded=0;fontSize=12;startSize=8;endSize=8;curved=1;entryX=1;entryY=0.5;entryDx=0;entryDy=0;exitX=0;exitY=0.5;exitDx=0;exitDy=0;" edge="1" parent="1" source="OKaZB6Riipc2AciTPFcM-1" target="S6327EMnDC8RldJqwDfJ-3">
          <mxGeometry width="50" height="50" relative="1" as="geometry">
            <mxPoint x="360" y="300" as="sourcePoint" />
            <mxPoint x="410" y="250" as="targetPoint" />
          </mxGeometry>
        </mxCell>
        <mxCell id="S6327EMnDC8RldJqwDfJ-7" value="" style="endArrow=none;html=1;rounded=0;fontSize=12;startSize=8;endSize=8;curved=1;entryX=0;entryY=1;entryDx=0;entryDy=0;exitX=0.75;exitY=0;exitDx=0;exitDy=0;" edge="1" parent="1" source="OKaZB6Riipc2AciTPFcM-1" target="S6327EMnDC8RldJqwDfJ-1">
          <mxGeometry width="50" height="50" relative="1" as="geometry">
            <mxPoint x="360" y="300" as="sourcePoint" />
            <mxPoint x="410" y="250" as="targetPoint" />
          </mxGeometry>
        </mxCell>
      </root>
    </mxGraphModel>
  </diagram>
</mxfile>
